<mxfile host="Electron" modified="2024-08-21T16:11:25.845Z" agent="Mozilla/5.0 (X11; Linux x86_64) AppleWebKit/537.36 (KHTML, like Gecko) draw.io/24.6.4 Chrome/124.0.6367.207 Electron/30.0.6 Safari/537.36" etag="yCSSPBe2Cqk2EsUwebKN" version="24.6.4" type="device">
  <diagram name="Page-1" id="7inHc9Q6Ccn756RbUHnm">
    <mxGraphModel dx="1434" dy="835" grid="1" gridSize="10" guides="1" tooltips="1" connect="1" arrows="1" fold="1" page="1" pageScale="1" pageWidth="850" pageHeight="1100" math="0" shadow="0">
      <root>
        <mxCell id="0" />
        <mxCell id="1" parent="0" />
        <mxCell id="wIZ43N2knN1_QpdRfwYL-1" value="ska_llm" style="shape=umlFrame;whiteSpace=wrap;html=1;pointerEvents=0;" parent="1" vertex="1">
          <mxGeometry x="160" y="160" width="520" height="360" as="geometry" />
        </mxCell>
        <mxCell id="wIZ43N2knN1_QpdRfwYL-5" value="rag&amp;nbsp;&lt;div&gt;module&lt;/div&gt;" style="shape=module;align=left;spacingLeft=20;align=center;verticalAlign=top;whiteSpace=wrap;html=1;" parent="1" vertex="1">
          <mxGeometry x="350" y="300" width="110" height="50" as="geometry" />
        </mxCell>
        <mxCell id="wIZ43N2knN1_QpdRfwYL-6" value="download_llm" style="ellipse;whiteSpace=wrap;html=1;" parent="1" vertex="1">
          <mxGeometry x="210" y="200" width="110" height="40" as="geometry" />
        </mxCell>
        <mxCell id="wIZ43N2knN1_QpdRfwYL-8" value="rag_prepare" style="ellipse;whiteSpace=wrap;html=1;" parent="1" vertex="1">
          <mxGeometry x="210" y="260" width="110" height="40" as="geometry" />
        </mxCell>
        <mxCell id="wIZ43N2knN1_QpdRfwYL-9" value="rag_invoke" style="ellipse;whiteSpace=wrap;html=1;" parent="1" vertex="1">
          <mxGeometry x="210" y="320" width="110" height="40" as="geometry" />
        </mxCell>
        <mxCell id="wIZ43N2knN1_QpdRfwYL-10" value="create_skalm" style="ellipse;whiteSpace=wrap;html=1;" parent="1" vertex="1">
          <mxGeometry x="210" y="380" width="110" height="40" as="geometry" />
        </mxCell>
        <mxCell id="wIZ43N2knN1_QpdRfwYL-11" value="invoke_skalm" style="ellipse;whiteSpace=wrap;html=1;" parent="1" vertex="1">
          <mxGeometry x="210" y="440" width="110" height="40" as="geometry" />
        </mxCell>
        <mxCell id="_1hHCrO5CZwxLzsTIWwX-1" value="llm module" style="shape=module;align=left;spacingLeft=20;align=center;verticalAlign=top;whiteSpace=wrap;html=1;" vertex="1" parent="1">
          <mxGeometry x="350" y="390" width="110" height="50" as="geometry" />
        </mxCell>
        <mxCell id="_1hHCrO5CZwxLzsTIWwX-2" value="download_llms&lt;span style=&quot;background-color: initial;&quot;&gt;&amp;nbsp;&lt;/span&gt;&lt;div&gt;&lt;div&gt;module&lt;/div&gt;&lt;/div&gt;" style="shape=module;align=left;spacingLeft=20;align=center;verticalAlign=top;whiteSpace=wrap;html=1;" vertex="1" parent="1">
          <mxGeometry x="350" y="200" width="110" height="50" as="geometry" />
        </mxCell>
        <mxCell id="_1hHCrO5CZwxLzsTIWwX-4" value="langchain lib" style="shape=module;align=left;spacingLeft=20;align=center;verticalAlign=top;whiteSpace=wrap;html=1;" vertex="1" parent="1">
          <mxGeometry x="510" y="315" width="110" height="50" as="geometry" />
        </mxCell>
        <mxCell id="_1hHCrO5CZwxLzsTIWwX-5" value="unstructured lib" style="shape=module;align=left;spacingLeft=20;align=center;verticalAlign=top;whiteSpace=wrap;html=1;" vertex="1" parent="1">
          <mxGeometry x="510" y="380" width="110" height="50" as="geometry" />
        </mxCell>
        <mxCell id="_1hHCrO5CZwxLzsTIWwX-7" value="hugginface_hub lib" style="shape=module;align=left;spacingLeft=20;align=center;verticalAlign=top;whiteSpace=wrap;html=1;" vertex="1" parent="1">
          <mxGeometry x="510" y="180" width="110" height="50" as="geometry" />
        </mxCell>
        <mxCell id="_1hHCrO5CZwxLzsTIWwX-8" value="faiss lib" style="shape=module;align=left;spacingLeft=20;align=center;verticalAlign=top;whiteSpace=wrap;html=1;" vertex="1" parent="1">
          <mxGeometry x="510" y="250" width="110" height="50" as="geometry" />
        </mxCell>
        <mxCell id="_1hHCrO5CZwxLzsTIWwX-9" value="nltk lib" style="shape=module;align=left;spacingLeft=20;align=center;verticalAlign=top;whiteSpace=wrap;html=1;" vertex="1" parent="1">
          <mxGeometry x="510" y="450" width="110" height="50" as="geometry" />
        </mxCell>
        <mxCell id="_1hHCrO5CZwxLzsTIWwX-10" style="edgeStyle=orthogonalEdgeStyle;rounded=0;orthogonalLoop=1;jettySize=auto;html=1;entryX=0;entryY=0;entryDx=0;entryDy=35;entryPerimeter=0;" edge="1" parent="1" source="_1hHCrO5CZwxLzsTIWwX-2" target="_1hHCrO5CZwxLzsTIWwX-7">
          <mxGeometry relative="1" as="geometry" />
        </mxCell>
        <mxCell id="_1hHCrO5CZwxLzsTIWwX-11" style="edgeStyle=orthogonalEdgeStyle;rounded=0;orthogonalLoop=1;jettySize=auto;html=1;entryX=0;entryY=0;entryDx=0;entryDy=35;entryPerimeter=0;" edge="1" parent="1" source="wIZ43N2knN1_QpdRfwYL-5" target="_1hHCrO5CZwxLzsTIWwX-8">
          <mxGeometry relative="1" as="geometry" />
        </mxCell>
        <mxCell id="_1hHCrO5CZwxLzsTIWwX-12" style="edgeStyle=orthogonalEdgeStyle;rounded=0;orthogonalLoop=1;jettySize=auto;html=1;entryX=0.061;entryY=0.468;entryDx=0;entryDy=0;entryPerimeter=0;" edge="1" parent="1" source="wIZ43N2knN1_QpdRfwYL-5" target="_1hHCrO5CZwxLzsTIWwX-4">
          <mxGeometry relative="1" as="geometry" />
        </mxCell>
        <mxCell id="_1hHCrO5CZwxLzsTIWwX-13" style="edgeStyle=orthogonalEdgeStyle;rounded=0;orthogonalLoop=1;jettySize=auto;html=1;entryX=0;entryY=0;entryDx=0;entryDy=15;entryPerimeter=0;" edge="1" parent="1" source="wIZ43N2knN1_QpdRfwYL-5" target="_1hHCrO5CZwxLzsTIWwX-5">
          <mxGeometry relative="1" as="geometry" />
        </mxCell>
        <mxCell id="_1hHCrO5CZwxLzsTIWwX-14" style="edgeStyle=orthogonalEdgeStyle;rounded=0;orthogonalLoop=1;jettySize=auto;html=1;entryX=0;entryY=0;entryDx=0;entryDy=35;entryPerimeter=0;" edge="1" parent="1" source="_1hHCrO5CZwxLzsTIWwX-1" target="_1hHCrO5CZwxLzsTIWwX-5">
          <mxGeometry relative="1" as="geometry" />
        </mxCell>
        <mxCell id="_1hHCrO5CZwxLzsTIWwX-15" style="edgeStyle=orthogonalEdgeStyle;rounded=0;orthogonalLoop=1;jettySize=auto;html=1;entryX=0;entryY=0;entryDx=0;entryDy=15;entryPerimeter=0;" edge="1" parent="1" source="_1hHCrO5CZwxLzsTIWwX-1" target="_1hHCrO5CZwxLzsTIWwX-9">
          <mxGeometry relative="1" as="geometry" />
        </mxCell>
        <mxCell id="_1hHCrO5CZwxLzsTIWwX-16" style="edgeStyle=orthogonalEdgeStyle;rounded=0;orthogonalLoop=1;jettySize=auto;html=1;entryX=0.091;entryY=0.494;entryDx=0;entryDy=0;entryPerimeter=0;" edge="1" parent="1" source="wIZ43N2knN1_QpdRfwYL-6" target="_1hHCrO5CZwxLzsTIWwX-2">
          <mxGeometry relative="1" as="geometry" />
        </mxCell>
        <mxCell id="_1hHCrO5CZwxLzsTIWwX-17" style="edgeStyle=orthogonalEdgeStyle;rounded=0;orthogonalLoop=1;jettySize=auto;html=1;entryX=0;entryY=0;entryDx=0;entryDy=15;entryPerimeter=0;" edge="1" parent="1" source="wIZ43N2knN1_QpdRfwYL-8" target="wIZ43N2knN1_QpdRfwYL-5">
          <mxGeometry relative="1" as="geometry" />
        </mxCell>
        <mxCell id="_1hHCrO5CZwxLzsTIWwX-18" style="edgeStyle=orthogonalEdgeStyle;rounded=0;orthogonalLoop=1;jettySize=auto;html=1;entryX=0;entryY=0;entryDx=0;entryDy=35;entryPerimeter=0;" edge="1" parent="1" source="wIZ43N2knN1_QpdRfwYL-9" target="wIZ43N2knN1_QpdRfwYL-5">
          <mxGeometry relative="1" as="geometry" />
        </mxCell>
        <mxCell id="_1hHCrO5CZwxLzsTIWwX-20" style="edgeStyle=orthogonalEdgeStyle;rounded=0;orthogonalLoop=1;jettySize=auto;html=1;entryX=0;entryY=0;entryDx=0;entryDy=15;entryPerimeter=0;" edge="1" parent="1" source="wIZ43N2knN1_QpdRfwYL-10" target="_1hHCrO5CZwxLzsTIWwX-1">
          <mxGeometry relative="1" as="geometry" />
        </mxCell>
        <mxCell id="_1hHCrO5CZwxLzsTIWwX-21" style="edgeStyle=orthogonalEdgeStyle;rounded=0;orthogonalLoop=1;jettySize=auto;html=1;entryX=0;entryY=0;entryDx=0;entryDy=35;entryPerimeter=0;" edge="1" parent="1" source="wIZ43N2knN1_QpdRfwYL-11" target="_1hHCrO5CZwxLzsTIWwX-1">
          <mxGeometry relative="1" as="geometry" />
        </mxCell>
      </root>
    </mxGraphModel>
  </diagram>
</mxfile>
